<?xml version="1.0" standalone="no"?>
<svg xmlns="http://www.w3.org/2000/svg" viewBox="0 0 162.76 52.64" width="162.76" height="52.64"><rect fill="#09675b" width="162.76" height="52.64" x="0" y="0"></rect><g fill="white" color="white" transform="translate(12 14.387) scale(0.5966667)"><svg width="48.0" height="40.0" x="0.0" y="0.0" viewBox="0 0 48 40"><path fill="currentColor" fill-rule="evenodd" d="M41.576 0L12.872 28.703v-2.95L38.625 0h-4.1l-10.9 10.898L12.725 0h-4.1l12.949 12.95-1.476 1.474L5.675 0h-4.1l16.474 16.475-1.475 1.475L0 1.376V40h2.9V8.378l2.087 2.086V40h2.9V13.364l2.086 2.087V40h2.9v-.146l10.752-10.752L34.525 40h2.951V15.253l2.086-2.087V40h2.9V10.266l2.087-2.086V40h2.898V5.434h-.153l.153-.154V1.178L12.872 35.754v-2.95L45.675 0h-4.1zm-8.849 20l1.848-1.848v3.697L32.727 20zm-19.855-1.65L14.522 20l-1.65 1.65V18.35zm16.329 5.176l1.476-1.474 3.898 3.899v2.952l-5.374-5.377zm-3.526 3.526l1.475-1.476 7.425 7.426v2.95l-8.9-8.9z"></path></svg></g><path fill="white" fill-rule="nonzero" d="M4.36 28.24L0.36 28.24Q0.04 28.24 0.04 27.96L0.04 27.96L0 0.72Q0 0.40 0.32 0.40L0.32 0.40L3.92 0.40L10.68 16.16L10.48 0.72Q10.48 0.40 10.84 0.40L10.84 0.40L14.80 0.40Q15.04 0.40 15.04 0.72L15.04 0.72L15.08 28.00Q15.08 28.24 14.88 28.24L14.88 28.24L11.36 28.24L4.44 13.52L4.72 27.92Q4.72 28.24 4.36 28.24L4.36 28.24ZM25.36 28.64L25.36 28.64Q23.20 28.64 21.42 27.54Q19.64 26.44 18.58 24.62Q17.52 22.80 17.52 20.60L17.52 20.60L17.52 18.76Q17.52 18.56 17.72 18.56L17.72 18.56L22.20 18.56Q22.36 18.56 22.36 18.76L22.36 18.76L22.36 20.60Q22.36 21.92 23.24 22.86Q24.12 23.80 25.36 23.80L25.36 23.80Q26.60 23.80 27.48 22.84Q28.36 21.88 28.36 20.60L28.36 20.60Q28.36 19.12 26.44 18.04L26.44 18.04Q25.80 17.68 24.44 16.92Q23.08 16.16 21.88 15.48L21.88 15.48Q19.68 14.20 18.62 12.26Q17.56 10.32 17.56 7.88L17.56 7.88Q17.56 5.64 18.64 3.86Q19.72 2.08 21.50 1.04Q23.28 0 25.36 0L25.36 0Q27.48 0 29.26 1.06Q31.04 2.12 32.10 3.90Q33.16 5.68 33.16 7.88L33.16 7.88L33.16 11.16Q33.16 11.32 33 11.32L33 11.32L28.52 11.32Q28.36 11.32 28.36 11.16L28.36 11.16L28.32 7.88Q28.32 6.48 27.44 5.60Q26.56 4.72 25.36 4.72L25.36 4.72Q24.12 4.72 23.24 5.66Q22.36 6.60 22.36 7.88L22.36 7.88Q22.36 9.20 22.92 10.08Q23.48 10.96 24.96 11.76L24.96 11.76Q25.16 11.88 25.74 12.18Q26.32 12.48 27 12.86Q27.68 13.24 28.22 13.52Q28.76 13.80 28.88 13.88L28.88 13.88Q30.88 15.00 32.04 16.62Q33.20 18.24 33.20 20.60L33.20 20.60Q33.20 22.88 32.14 24.70Q31.08 26.52 29.30 27.58Q27.52 28.64 25.36 28.64ZM40.72 28.24L36.20 28.24Q36 28.24 36 28.04L36 28.04L36.04 0.56Q36.04 0.40 36.20 0.40L36.20 0.40L40.68 0.40Q40.84 0.40 40.84 0.56L40.84 0.56L40.88 28.04Q40.88 28.24 40.72 28.24L40.72 28.24ZM51.72 28.24L44.56 28.24Q44.40 28.24 44.40 28.04L44.40 28.04L44.48 0.56Q44.48 0.40 44.64 0.40L44.64 0.40L52.32 0.40Q54.60 0.40 56.40 1.50Q58.20 2.60 59.24 4.40Q60.28 6.20 60.28 8.32L60.28 8.32Q60.28 10.04 59.50 11.52Q58.72 13.00 57.64 13.92L57.64 13.92Q58.80 15.08 59.44 16.60Q60.08 18.12 60.08 19.80L60.08 19.80Q60.08 22.12 58.96 24.04Q57.84 25.96 55.94 27.10Q54.04 28.24 51.72 28.24L51.72 28.24ZM49.28 5.16L49.28 11.44L52.32 11.44Q53.72 11.44 54.58 10.46Q55.44 9.48 55.44 8.32L55.44 8.32Q55.44 7.04 54.52 6.10Q53.60 5.16 52.32 5.16L52.32 5.16L49.28 5.16ZM49.28 16.28L49.24 23.36L51.72 23.36Q53.16 23.36 54.20 22.30Q55.24 21.24 55.24 19.80L55.24 19.80Q55.24 18.36 54.20 17.32Q53.16 16.28 51.72 16.28L51.72 16.28L49.28 16.28ZM67.68 28.24L63.16 28.24Q62.96 28.24 62.96 28.04L62.96 28.04L63 0.56Q63 0.40 63.16 0.40L63.16 0.40L67.64 0.40Q67.80 0.40 67.80 0.56L67.80 0.56L67.84 28.04Q67.84 28.24 67.68 28.24L67.68 28.24ZM78.72 28.20L71.56 28.24Q71.36 28.24 71.36 28.04L71.36 28.04L71.44 0.56Q71.44 0.40 71.60 0.40L71.60 0.40L79.08 0.36Q81.28 0.32 83.10 1.40Q84.92 2.48 86 4.30Q87.08 6.12 87.08 8.32L87.08 8.32L87.08 19.80Q87.08 22.12 85.96 24.02Q84.84 25.92 82.96 27.04Q81.08 28.16 78.72 28.20L78.72 28.20ZM76.28 5.20L76.24 23.32L78.72 23.32Q80.20 23.32 81.22 22.28Q82.24 21.24 82.24 19.80L82.24 19.80L82.24 8.28Q82.24 7 81.30 6.06Q80.36 5.12 79.08 5.16L79.08 5.16L76.28 5.20ZM94.96 28.24L90.44 28.24Q90.24 28.24 90.24 28.04L90.24 28.04L90.28 0.56Q90.28 0.40 90.44 0.40L90.44 0.40L94.92 0.40Q95.08 0.40 95.08 0.56L95.08 0.56L95.12 28.04Q95.12 28.24 94.96 28.24L94.96 28.24Z" transform="translate(55.64 12) scale(1)"></path></svg>